<svg baseProfile="tiny" xmlns="http://www.w3.org/2000/svg" viewBox="0 0 288.9 355.2"><path fill="#D9D9D9" d="M287.1 24.2C287.1 5.5 275.8 0 266.6 0c-2.4 0-10.8 0-22.2.1v4.3H240V.1h-4.9v4.3h-4.4V.1h-4.9v4.3h-4.4V.1h-4.9v4.2H212V.1h-4.9v4.2h-4.4V.2h-4.9v4.2h-4.4V.2h-4.9v4.2h-4.4V.2h-4.9v4.1h-4.4V.2h-4.9v4.1h-4.4v-4h-4.9v4.1h-4.4V.3h-4.9v4.1h-4.4V.3h-4.8v4.1h-4.4V.3h-4.9v4.1h-4.4V.3h-4.9v4.1H119V.3h-4.9v4.1h-4.4V.2h-4.9v4.1h-4.4V.2h-4.9v4.2h-4.4V.2h-4.9v4.2h-4.4V.2h-4.9v4.2h-4.4V.1h-4.9v4.2h-4.4V.1h-4.9v4.3h-4.4V.1H49v4.3h-4.4V.1C33.2 0 24.8 0 22.4 0 13.2 0 1.8 5.5 1.8 24.2s-3.4 288.7-1 304.9c2.5 19 11.6 26 27.9 26s115.7-.7 115.7-.7 99.5.7 115.7.7c16.2 0 25.4-7 27.9-26 2.5-16.2-.9-286.2-.9-304.9z"/><path fill="#4C4C4C" d="M267.9 348.2H22.1c-8.3 0-15.1-6.8-15.1-15.1V21.2c0-8.3 6.8-15.1 15.1-15.1H268c8.3 0 15.1 6.8 15.1 15.1v311.9c-.1 8.3-6.9 15.1-15.2 15.1z"/><path fill="#D9D9D9" d="M266.9 347.2h-244c-8.3.4-15.5-6.9-15-15V21.9c-.5-8.3 7.2-15.5 15-15H267c8.2-.5 15.6 6.6 15 15v310.3c.5 8-6.9 15.4-15.1 15z"/><path fill="#B2B2B2" d="M254.9 289.5H34c-7.2 0-13.1-5.9-13.1-13.1V53.5c0-7.2 5.9-13.1 13.1-13.1h220.9c7.2 0 13.1 5.9 13.1 13.1v222.9c0 7.2-5.9 13.1-13.1 13.1z"/><path fill="gray" d="M179.5 270.1h-70.9c-3.3 0-5.9-2.7-5.9-5.9v-31.9c0-3.3 2.7-5.9 5.9-5.9h70.9c3.3 0 5.9 2.7 5.9 5.9v31.9c.1 3.3-2.6 5.9-5.9 5.9z"/><path fill="#C95B5B" d="M216.3 332.9c-1.7 0-3.1-1.4-3.1-3.1 0-1.7 1.4-3.1 3.1-3.1h8.9c1.7 0 3.1 1.4 3.1 3.1 0 1.7-1.4 3.1-3.1 3.1h-8.9z"/><path fill="#4C4C4C" d="M144.5 164.9c13.3 0 71.4-2.5 81.4-3.3 10-.8 14-3.9 16.2-7.2 2.4-3.5 2.6-10.3 2.1-14.9s-5.9-5.3-7.9-5.3H52.7c-2 0-7.4.7-7.9 5.3s-.2 11.3 2.1 14.9c2.2 3.3 6.1 6.4 16.2 7.2 10 .8 68 3.3 81.4 3.3"/><path fill="#FFF" d="M201 265.6v-31.9c0-4.6 3.7-8.3 8.3-8.3h25.1c4.6 0 8.3 3.7 8.3 8.3v31.9c0 4.6-3.7 8.3-8.3 8.3h-25.1c-4.6 0-8.3-3.7-8.3-8.3z"/><path fill="#4C4C4C" d="M234.3 271.5h-25c-3.3 0-5.9-2.7-5.9-5.9v-31.7c0-3.3 2.7-5.9 5.9-5.9h25c3.3 0 5.9 2.7 5.9 5.9v31.7c.1 3.2-2.6 5.9-5.9 5.9z"/><path fill="#FFF" d="M45.8 265.5v-31.9c0-4.6 3.7-8.3 8.3-8.3h25.1c4.6 0 8.3 3.7 8.3 8.3v31.9c0 4.6-3.7 8.3-8.3 8.3H54.1c-4.6.1-8.3-3.7-8.3-8.3z"/><path fill="#4C4C4C" d="M79.2 271.4h-25c-3.3 0-5.9-2.7-5.9-5.9v-31.7c0-3.3 2.7-5.9 5.9-5.9h25c3.3 0 5.9 2.7 5.9 5.9v31.7c0 3.2-2.7 5.9-5.9 5.9z"/><path fill="#4C4C4C" d="M85.1 251.8H48.5c-.7 0-1.2-.5-1.2-1.2v-2.1c0-.7.5-1.2 1.2-1.2h36.6c.7 0 1.2.5 1.2 1.2v2.1c-.1.7-.6 1.2-1.2 1.2z"/><path fill="#666" d="M48.5 247.4c-.6 0-1.1.5-1.2 1.1.1.6.6 1.1 1.2 1.1H85c.6 0 1.1-.5 1.2-1.1-.1-.6-.6-1.1-1.2-1.1H48.5z"/><path fill="gray" d="M63.2 158.5h-.7c-.7 0-1.2-.5-1.2-1.2V138c0-.7.5-1.2 1.2-1.2h.7c.7 0 1.2.5 1.2 1.2v19.3c0 .7-.6 1.2-1.2 1.2zM225.8 158.5h.7c.7 0 1.2-.5 1.2-1.2V138c0-.7-.5-1.2-1.2-1.2h-.7c-.7 0-1.2.5-1.2 1.2v19.3c0 .7.5 1.2 1.2 1.2zM147.4 158.6a4.05 4.05 0 0 1-5.9 0c-1.6-1.7-4.3-4.4-5.9-6-1.6-1.7-.3-3 3-3h11.8c3.2 0 4.6 1.4 3 3-1.7 1.6-4.3 4.3-6 6z"/><path fill="#4C4C4C" d="M51 323.5c-.7 0-1.3.5-1.4 1.2V326.6c0 .3 0 .7.1.8.1.6 2.2 3.6 2.2 4-.1.5-.3 1.8-.3 1.8-.1.4-.4.8-.8.8s-.8-.4-.7-.8l.4-2.2h-1.6l-.5 3.1c-.1.6.3 1.1.9 1.1h2.3c.6 0 1.2-.5 1.3-1.1 0 0 .6-2.9.6-3.1 0-.2-.1-.2-.1-.2 0-.2-1.9-3.4-2.1-3.5-.1 0-.2-.4-.2-.5 0-.2.2-1.4.2-1.4.1-.4.5-.8.9-.8s.6.4.6.8l-.3 2h1.6l.6-3c.1-.7-.3-1.2-.9-1.2H51zm4.4 0l-1.9 10.9c-.1.6.3 1.1.9 1.1h2.3c.6 0 1.2-.5 1.4-1.1l2-10.9h-1.4l-1.9 10.6c0 .2-.2.3-.3.3h-1.1c-.2 0-.3-.1-.2-.3l1.9-10.6h-1.7zm5.4 0l-2.3 12H60l1-5.5h2c.6 0 1.2-.5 1.3-1.1l.8-4.3c.1-.7-.3-1.2-.9-1.2h-3.4zm5.5 0l-2.4 12h3.4l.2-1.5h-1.7l.7-4.1h1.7l.2-1.3h-1.7l.7-3.7h1.7l.2-1.5h-3zm4 0l-2.3 12h1.5l1-5.5h1.1c.1.1.2.4.2.5 0 .2.1.4 0 .6 0 .2-.8 4.4-.8 4.4h1.5l.9-4.6c0-.1 0-.3-.1-.4-.1-.1-.2-.3-.3-.3-.2-.1-.5-.2-.5-.2h-.1c.4-.2 1.3-.5 1.3-.9l.8-4.3c.1-.7-.3-1.2-.9-1.2h-3.3zm8.1 0l-2.3 12h1.7l1.4-7 .6 7h1.5l2.3-12h-1.7l-1.2 6.3-.8-6.3h-1.5zm6.1 0l-2.3 12h1.5l2.3-12h-1.5zm2.3 0l-2.3 12h1.8l1.4-7 .6 7h1.5l2.3-12h-1.8l-1.2 6.3-.8-6.3h-1.5zm5.9 0l-.3 1.5h.9l-1.9 10.5h1.7L95 325h1l.2-1.5h-3.5zm4.1 0l-2.4 12h3.4l.2-1.5h-1.7l.7-4.1h1.7l.2-1.3h-1.7l.7-3.7h1.7l.2-1.5h-3zm3.9 0l-2.3 12h1.8l1.4-7 .6 7h1.5l2.3-12h-1.8l-1.2 6.3-.8-6.3h-1.5zm6 0l-2.3 12h3.5c.6 0 1.2-.5 1.4-1.1l1.8-9.7c.1-.7-.3-1.2-.9-1.2h-3.5zm6.5 0c-.7 0-1.3.5-1.4 1.2l-1.7 9.7c-.1.6.3 1.1.9 1.1h2.5c.6 0 1.2-.5 1.4-1.1l1.8-9.7c.1-.7-.3-1.2-.9-1.2h-2.6zm-5.2 1.4h.7c.4 0 .8.4.7.8l-1.5 7.9c-.1.4-.5.8-1 .8h-.7l1.8-9.5zm6.1 0c.5 0 .8.4.7.8l-1.4 7.9c-.1.4-.5.8-.9.8s-.6-.4-.6-.8l1.4-7.9.8-.8zm-51.8.1h.7c.2 0 .5.4.5.5l-.6 3c0 .2-.2.5-.4.5h-.9v-.1l.7-3.6c-.2-.3-.1-.3 0-.3zm9.4 0h.7c.2 0 .5.4.5.5l-.6 3c0 .2-.4.5-.6.5H71c-.1 0-.2-.1-.2-.2v-.1l.7-3.6.2-.1zm-24 11.6v3.9h67.6v-3.9H47.7zm49.7.4h.6c.1 0 .2.1.2.3l-.2.7h-.3l.1-.4c0-.1 0-.2-.1-.2s-.2.1-.2.2l-.1.3v.1s.5.7.5.8c0 .1-.1.7-.1.7 0 .1-.2.2-.3.2H97c-.1 0-.2-.1-.2-.2l.1-.7h.3l-.1.5c0 .1 0 .2.1.2s.2-.1.2-.2l.1-.4c-.1-.2-.5-.8-.5-.9v-.2c0-.1.1-.5.1-.5l.3-.3zm2.7 0h.4l.1 1 .5-1h.4l-.9 1.5-.2 1.1h-.4l.2-1.2-.1-1.4zm3.9 0h.6c.1 0 .2.1.2.3l-.1.7h-.3l.1-.4c0-.1 0-.2-.1-.2s-.2.1-.2.2l-.1.3v.1s.5.7.5.8c0 .1-.1.7-.1.7 0 .1-.2.2-.3.2h-.5c-.1 0-.2-.1-.2-.2l.1-.7h.3l-.1.5c0 .1 0 .2.1.2s.2-.1.2-.2l.1-.4c-.1-.2-.5-.8-.5-.9v-.2c0-.1.1-.5.1-.5l.2-.3zm2.7 0h.8l-.1.3h-.2l-.4 2.3h-.4l.4-2.3h-.2l.1-.3zm3.1 0h.7l-.1.3h-.4l-.2.8h.4l-.1.3h-.4l-.2.9h.4v.3h-.8l.7-2.6zm3 0h.4l.1 1.5.7-1.5h.4l-.5 2.7h-.3l.2-1.4-.6 1.4h-.2l-.1-1.4-.3 1.4h-.4l.6-2.7zm-63.7.1h.7v.3h-.4l-.2.8h.4v.3h-.4l-.1.9h.4l-.1.3h-.8l.5-2.6zm3.3 0h.3l.2 1.4.3-1.4h.4l-.5 2.7h-.3l-.1-1.6-.3 1.6H52l.4-2.7zm3.6 0h.8v.3h-.2l-.4 2.3h-.4l.4-2.3H56v-.3zm3.4 0h.7l-.1.3h-.4l-.2.8h.4v.3h-.4l-.2.9h.4v.3h-.8l.6-2.6zm3.3 0h.8c.1 0 .2.1.2.3l-.2.9c0 .1-.2.2-.3.2v.1l-.2 1.1h-.3s.2-.9.2-1v-.1-.1h-.2l-.2 1.2h-.3l.5-2.6zm3.4 0h.8v.3h-.2l-.4 2.3h-.4l.4-2.3h-.2v-.3zm4 0h.5l-.1 2.7H70l.1-.6h-.3l-.2.6h-.4l.9-2.7zm3.1 0h.3l-.5 2.7h-.3l.5-2.7zm3.1 0h.3l.2 1.4.3-1.4h.4l-.5 2.7h-.3l-.1-1.6-.3 1.6h-.4l.4-2.7zm3.9 0h.4l.1 1.6.7-1.5h.4l-.5 2.7H81l.2-1.4-.6 1.4h-.2l-.1-1.4-.3 1.4h-.4l.6-2.8zm4.3 0h.7v.3h-.4l-.2.8h.4v.3h-.4l-.2.9h.4l-.1.3H84l.5-2.6zm3.5 0h.3l.2 1.4.3-1.4h.4l-.5 2.7h-.3l-.1-1.6-.3 1.6h-.4l.4-2.7zm3.5 0h.8l-.1.3H92l-.4 2.3h-.4l.4-2.3h-.2l.1-.3zm-28.4.4s-.1 0 0 0l-.2.8h.1l.1-.1.1-.7-.1-.1zm7 .8l-.2.7h.1l.1-.7z"/><ellipse transform="rotate(-80.729 232.274 75.939)" fill="#4C4C4C" cx="232.3" cy="75.9" rx="18.9" ry="18.9"/><ellipse transform="rotate(-45.001 232.27 75.937)" fill="#B2B2B2" cx="232.3" cy="75.9" rx="18.2" ry="18.2"/><path fill="#7EEE80" d="M230.3 78.2c0 1.8-3.2 3.2-7.2 3.2s-7.2-1.4-7.2-3.2c0-1.8 3.2-3.2 7.2-3.2s7.2 1.4 7.2 3.2z"/><path fill="#FEE94B" d="M243.2 83.5c0 1.8-3.2 3.2-7.2 3.2s-7.2-1.4-7.2-3.2c0-1.8 3.2-3.2 7.2-3.2s7.2 1.4 7.2 3.2z"/><path fill="#FF7961" d="M244 81.4c-.9-3.6-4-7.6-8.1-5.9 3.3-7.6 9.5-6.4 11.7-3.8 1.7 2 1.7 9-3.6 9.7z"/><path fill="#0098DF" d="M231.3 75.6c-.9-3.6-4-7.6-8.1-5.8 3.3-7.6 9.5-6.4 11.7-3.8 1.8 1.9 1.7 8.8-3.6 9.6z"/><path fill="#4C4C4C" d="M40.4 6.6h.6v33.8h-.6zM247.9 6.6h.6v33.8h-.6zM252.2 289.5h.6v57.7h-.6zM36.2 289.5h.6v57.7h-.6z"/></svg>